#define battery_width 10
#define battery_height 10
static unsigned char battery_bits[] = {
   0x00, 0x00, 0x00, 0x00, 0xfc, 0x03, 0xff, 0x03, 0xff, 0x03, 0xff, 0x03,
   0xff, 0x03, 0xfc, 0x03, 0x00, 0x00, 0x00, 0x00 };
