#define input_width 10
#define input_height 10
static unsigned char input_bits[] = {
   0x78, 0x00, 0x78, 0x00, 0x78, 0x00, 0xfe, 0x01, 0xfc, 0x00, 0x78, 0x00,
   0x33, 0x03, 0x03, 0x03, 0xff, 0x03, 0xff, 0x03 };
