#define io_width 10
#define io_height 10
static unsigned char io_bits[] = {
   0x00, 0x00, 0xfe, 0x01, 0xfe, 0x01, 0x8e, 0x01, 0xfe, 0x01, 0xfe, 0x01,
   0x8e, 0x01, 0x8c, 0x01, 0xf8, 0x01, 0x00, 0x00 };
