#define parabola_width 10
#define parabola_height 10
static unsigned char parabola_bits[] = {
   0xa0, 0x03, 0xa8, 0x03, 0xaa, 0x03, 0x8b, 0x03, 0x81, 0x03, 0x80, 0x03,
   0xc0, 0x01, 0xc0, 0x01, 0xe0, 0x00, 0x70, 0x00 };
