#define signal_width 10
#define signal_height 10
static unsigned char signal_bits[] = {
   0x00, 0x00, 0x00, 0x00, 0x80, 0x01, 0x80, 0x01, 0xb0, 0x01, 0xb0, 0x01,
   0xb6, 0x01, 0xb6, 0x01, 0xb6, 0x01, 0xb6, 0x01 };
