#define up_width 10
#define up_height 10
static unsigned char up_bits[] = {
   0x30, 0x00, 0x78, 0x00, 0xfc, 0x00, 0xfe, 0x01, 0x78, 0x00, 0x78, 0x00,
   0x78, 0x00, 0x78, 0x00, 0x78, 0x00, 0x00, 0x00 };
